# xmcd CD database file
#
# Track frame offsets:
#	150
#	14925
#	27600
#	36149
#	49912
#	64449
#	78472
#	92580
#	105241
#	120045
#	133293
#	144932
#	160873
#	172736
#	179264
#	193296
#
# Disc length: 2778 seconds
#
# Revision: 1
# Processed by: cddbd v1.5.2PL0 Copyright (c) Steve Scherf et al.
# Submitted via: CDex 1.51
#
DISCID=d90ad810
DTITLE=Various Artist - Jazz - The Essential Collection disc 12
DYEAR=1900
DGENRE=Jazz
TTITLE0=The Frim Fram Sauce - Nat King Cole Trio
TTITLE1=Solo Flight - Benny Goodman and His Orchestra
TTITLE2=Flight Of The Bumble Bee - Harry James and His Orchestra
TTITLE3=Texas And Pacific - Louis Jordan and His Tympany Five
TTITLE4=Salt Peanuts - Dizzy Gillespie And His All Star Quintet
TTITLE5=Robbin's Nest - Count Basie
TTITLE6=Stormy Monday Blues - Billy Eckstine With Earl Hines and His Orchestra 
TTITLE7=Main Stem - Duke Ellington and His Famous Orchestra
TTITLE8=The Golden Wedding - Woody Herman And His Orchestra
TTITLE9=Fine Brown Frame - Nellie Lutcher
TTITLE10=Ugly Chile, Ugly Child - Johnny Mercer
TTITLE11=Blues In The Night - Benny Goodman and His Orchestra Feat. Peggy Lee
TTITLE12=Charleston Alley - Charlie Barnet and His Orchestra
TTITLE13=If You Build A Better Mousetrap - Jimmy Dorsey and His Orchestra
TTITLE14=Barrelhouse Bessie From Basin Street - Bob Crosby and His Orchestra With Eddie Miller
TTITLE15=Stormy Weather - Lena Horne
EXTD=
EXTT0=
EXTT1=
EXTT2=
EXTT3=
EXTT4=
EXTT5=
EXTT6=
EXTT7=
EXTT8=
EXTT9=
EXTT10=
EXTT11=
EXTT12=
EXTT13=
EXTT14=
EXTT15=
PLAYORDER=
